<?xml version="1.0" encoding="utf-8"?>
<svg xmlns="http://www.w3.org/2000/svg"
     viewBox="0 0 1400 320"
     preserveAspectRatio="xMidYMid slice"
     role="img"
     aria-label="Decorative Veliessa banner">
  <defs>
    <!-- Brand gradients -->
    <linearGradient id="bg" x1="0" x2="1" y1="0" y2="1">
      <stop offset="0" stop-color="#071122"/>
      <stop offset="1" stop-color="#071827"/>
    </linearGradient>

    <linearGradient id="gold" x1="0" x2="1">
      <stop offset="0" stop-color="#EEC87C"/>
      <stop offset="1" stop-color="#F2A95B"/>
    </linearGradient>

    <linearGradient id="cyan" x1="0" x2="1">
      <stop offset="0" stop-color="#6CE2E6"/>
      <stop offset="1" stop-color="#36B7D6"/>
    </linearGradient>

    <!-- subtle grain -->
    <pattern id="grain" patternUnits="userSpaceOnUse" width="12" height="12">
      <rect width="12" height="12" fill="transparent"/>
      <circle cx="1.5" cy="1.5" r="0.6" fill="rgba(255,255,255,0.012)"/>
    </pattern>

    <!-- thin diagonal lines pattern -->
    <pattern id="diag" patternUnits="userSpaceOnUse" width="28" height="28" patternTransform="rotate(23)">
      <rect width="28" height="28" fill="transparent"/>
      <path d="M-1 28 L28 -1" stroke="rgba(255,255,255,0.02)" stroke-width="1"/>
    </pattern>

    <!-- soft shadow filter -->
    <filter id="soft" x="-50%" y="-50%" width="200%" height="200%">
      <feGaussianBlur stdDeviation="8" result="b"/>
      <feMerge><feMergeNode in="b"/><feMergeNode in="SourceGraphic"/></feMerge>
    </filter>
  </defs>

  <!-- background -->
  <rect width="1400" height="320" fill="url(#bg)"/>

  <!-- layered textures -->
  <rect width="1400" height="320" fill="url(#diag)" opacity="0.55"/>
  <rect width="1400" height="320" fill="url(#grain)" opacity="0.9"/>

  <!-- left open area (for README title / text to sit beside) -->
  <rect x="36" y="32" width="560" height="256" rx="16"
        fill="rgba(255,255,255,0.014)" stroke="rgba(255,255,255,0.02)"/>

  <!-- repeating abstract marks on right side -->
  <g transform="translate(860,40)">
    <!-- column 1 -->
    <g transform="translate(0,0)">
      <circle cx="60" cy="40" r="32" fill="url(#cyan)" opacity="0.98"/>
      <rect x="12" y="90" width="96" height="64" rx="8" fill="transparent" stroke="rgba(255,255,255,0.03)"/>
      <g transform="translate(0,180)">
        <rect x="0" y="0" width="96" height="28" rx="6" fill="rgba(255,255,255,0.02)"/>
        <rect x="0" y="40" width="72" height="8" rx="4" fill="rgba(255,255,255,0.02)"/>
      </g>
    </g>

    <!-- column 2 -->
    <g transform="translate(140,0)">
      <circle cx="60" cy="40" r="36" fill="none" stroke="url(#gold)" stroke-width="2.2"/>
      <rect x="10" y="96" width="96" height="64" rx="8" fill="url(#gold)" opacity="0.06"/>
      <g transform="translate(0,180)">
        <!-- thin dot grid -->
        <g fill="rgba(255,255,255,0.03)">
          <circle cx="14" cy="14" r="1.2"/>
          <circle cx="34" cy="14" r="1.2"/>
          <circle cx="54" cy="14" r="1.2"/>
          <circle cx="74" cy="14" r="1.2"/>
          <circle cx="14" cy="34" r="1.2"/>
          <circle cx="34" cy="34" r="1.2"/>
          <circle cx="54" cy="34" r="1.2"/>
          <circle cx="74" cy="34" r="1.2"/>
        </g>
      </g>
    </g>

    <!-- column 3 -->
    <g transform="translate(280,0)">
      <g transform="translate(0,12)">
        <rect x="6" y="0" width="96" height="56" rx="12" fill="url(#gold)" opacity="0.06"/>
        <circle cx="54" cy="128" r="36" fill="none" stroke="rgba(255,255,255,0.04)" stroke-width="1.6"/>
        <path d="M12 64 L84 120" stroke="rgba(255,255,255,0.03)" stroke-width="1.6" stroke-linecap="round"/>
      </g>
      <g transform="translate(8,180)">
        <circle cx="56" cy="16" r="12" fill="url(#cyan)"/>
      </g>
    </g>
  </g>

  <!-- subtle vignette at edges for depth -->
  <radialGradient id="v" cx="50%" cy="50%" r="75%">
    <stop offset="0" stop-color="rgba(0,0,0,0)"/>
    <stop offset="1" stop-color="rgba(0,0,0,0.36)"/>
  </radialGradient>
  <rect width="1400" height="320" fill="url(#v)" style="mix-blend-mode:multiply"/>

  <!-- small signature accent (non-text emblem) -->
  <g transform="translate(520,220)" opacity="0.95">
    <rect x="-42" y="-18" width="84" height="36" rx="8" fill="rgba(255,255,255,0.02)" stroke="rgba(255,255,255,0.03)"/>
    <circle cx="0" cy="0" r="10" fill="url(#gold)"/>
    <rect x="22" y="-6" width="32" height="4" rx="2" fill="rgba(255,255,255,0.04)"/>
  </g>

  <!-- accessibility: hidden title (for screen readers) -->
  <title style="display:none">Decorative banner for Veliessa</title>
</svg>
